<svg width="232" height="35" viewBox="0 0 232 35" fill="none" xmlns="http://www.w3.org/2000/svg">
<path d="M26.472 0.544004V34H22.104V18.832H5.06398V34H0.695984V0.544004H5.06398V15.232H22.104V0.544004H26.472Z" fill="#A5A752"/>
<path d="M53.7064 26.56H39.1144L36.4264 34H31.8184L43.9144 0.736005H48.9544L61.0024 34H56.3944L53.7064 26.56ZM52.4584 23.008L46.4104 6.112L40.3624 23.008H52.4584Z" fill="#A5A752"/>
<path d="M83.8901 34L75.9221 20.32H70.6421V34H66.2741V0.160004L77.0741 0.544004C79.6021 0.544004 81.7301 0.976005 83.4581 1.84C85.2181 2.70401 86.5301 3.87201 87.3941 5.34401C88.2581 6.81601 88.6901 8.49601 88.6901 10.384C88.6901 12.688 88.0181 14.72 86.6741 16.48C85.3621 18.24 83.3781 19.408 80.7221 19.984L89.1221 34H83.8901ZM70.6421 16.816H77.0741C79.4421 16.816 81.2181 16.24 82.4021 15.088C83.5861 13.904 84.1781 12.336 84.1781 10.384C84.1781 8.4 83.5861 6.86401 82.4021 5.77601C81.2501 4.688 79.4741 4.144 77.0741 4.144H70.6421V16.816Z" fill="#A5A752"/>
<path d="M129.413 0.784004V34H125.045V9.232L114.005 34H110.933L99.8452 9.184V34H95.4772V0.784004H100.181L112.469 28.24L124.757 0.784004H129.413Z" fill="#A5A752"/>
<path d="M151.989 34.336C148.885 34.336 146.053 33.616 143.493 32.176C140.933 30.704 138.901 28.672 137.397 26.08C135.925 23.456 135.189 20.512 135.189 17.248C135.189 13.984 135.925 11.056 137.397 8.46401C138.901 5.84 140.933 3.808 143.493 2.368C146.053 0.896004 148.885 0.160004 151.989 0.160004C155.125 0.160004 157.973 0.896004 160.533 2.368C163.093 3.808 165.109 5.824 166.581 8.416C168.053 11.008 168.789 13.952 168.789 17.248C168.789 20.544 168.053 23.488 166.581 26.08C165.109 28.672 163.093 30.704 160.533 32.176C157.973 33.616 155.125 34.336 151.989 34.336ZM151.989 30.544C154.325 30.544 156.421 30 158.277 28.912C160.165 27.824 161.637 26.272 162.693 24.256C163.781 22.24 164.325 19.904 164.325 17.248C164.325 14.56 163.781 12.224 162.693 10.24C161.637 8.224 160.181 6.672 158.325 5.58401C156.469 4.496 154.357 3.952 151.989 3.952C149.621 3.952 147.509 4.496 145.653 5.58401C143.797 6.672 142.325 8.224 141.237 10.24C140.181 12.224 139.653 14.56 139.653 17.248C139.653 19.904 140.181 22.24 141.237 24.256C142.325 26.272 143.797 27.824 145.653 28.912C147.541 30 149.653 30.544 151.989 30.544Z" fill="#A5A752"/>
<path d="M200.859 34H196.491L178.923 7.36001V34H174.555V0.496005H178.923L196.491 27.088V0.496005H200.859V34Z" fill="#A5A752"/>
<path d="M231.729 0.544004L220.833 21.376V34H216.465V21.376L205.521 0.544004H210.369L218.625 17.488L226.881 0.544004H231.729Z" fill="#A5A752"/>
</svg>
